<svg xmlns="http://www.w3.org/2000/svg" viewBox="0 0 1000 500" width="1000" height="500">
  <title>Multi-Cloud Regions Map</title>
  <desc>World map showing AWS, Azure, and GCP cloud region locations</desc>
  
  <!-- Background -->
  <rect width="1000" height="500" fill="#fafafa"/>
  
  
<!-- Simplified world map outline -->
<path d="M50,200 Q100,180 150,190 L200,180 Q250,170 300,175 L350,180 Q400,185 450,175 
         L500,170 Q550,165 600,175 L650,180 Q700,185 750,180 L800,175 Q850,170 900,180 
         L950,190" fill="none" stroke="#e5e7eb" stroke-width="1"/>

<!-- North America -->
<path d="M100,120 Q150,100 200,110 L280,130 Q320,140 350,160 L320,200 Q280,220 240,210 
         L180,190 Q140,180 120,160 Z" fill="#f3f4f6" stroke="#d1d5db" stroke-width="0.5"/>

<!-- South America -->
<path d="M280,280 Q300,260 320,270 L340,320 Q350,360 330,400 L300,420 Q270,400 280,350 Z" 
      fill="#f3f4f6" stroke="#d1d5db" stroke-width="0.5"/>

<!-- Europe -->
<path d="M450,120 Q480,110 520,115 L560,130 Q580,140 570,160 L540,175 Q500,180 470,170 
         L450,150 Z" fill="#f3f4f6" stroke="#d1d5db" stroke-width="0.5"/>

<!-- Africa -->
<path d="M480,200 Q520,190 560,200 L580,250 Q590,300 570,350 L540,400 Q500,410 480,380 
         L470,320 Q460,260 480,200 Z" fill="#f3f4f6" stroke="#d1d5db" stroke-width="0.5"/>

<!-- Asia -->
<path d="M580,100 Q650,90 720,100 L800,120 Q850,140 880,180 L860,220 Q820,250 760,240 
         L700,220 Q640,200 600,170 L580,140 Z" fill="#f3f4f6" stroke="#d1d5db" stroke-width="0.5"/>

<!-- Australia -->
<path d="M820,340 Q860,330 900,350 L910,390 Q900,420 860,420 L830,400 Q810,370 820,340 Z" 
      fill="#f3f4f6" stroke="#d1d5db" stroke-width="0.5"/>

  
  <!-- Region markers -->
  <g id="regions">
    
    <circle cx="280" cy="180" r="3" fill="#FF9900" opacity="0.7" data-provider="aws" data-region="us-east-1"/>
    <circle cx="260" cy="175" r="3" fill="#FF9900" opacity="0.7" data-provider="aws" data-region="us-east-2"/>
    <circle cx="140" cy="185" r="3" fill="#FF9900" opacity="0.7" data-provider="aws" data-region="us-west-1"/>
    <circle cx="145" cy="165" r="3" fill="#FF9900" opacity="0.7" data-provider="aws" data-region="us-west-2"/>
    <circle cx="250" cy="150" r="3" fill="#FF9900" opacity="0.7" data-provider="aws" data-region="ca-central-1"/>
    <circle cx="460" cy="155" r="3" fill="#FF9900" opacity="0.7" data-provider="aws" data-region="eu-west-1"/>
    <circle cx="475" cy="155" r="3" fill="#FF9900" opacity="0.7" data-provider="aws" data-region="eu-west-2"/>
    <circle cx="485" cy="165" r="3" fill="#FF9900" opacity="0.7" data-provider="aws" data-region="eu-west-3"/>
    <circle cx="505" cy="155" r="3" fill="#FF9900" opacity="0.7" data-provider="aws" data-region="eu-central-1"/>
    <circle cx="500" cy="165" r="3" fill="#FF9900" opacity="0.7" data-provider="aws" data-region="eu-central-2"/>
    <circle cx="520" cy="125" r="3" fill="#FF9900" opacity="0.7" data-provider="aws" data-region="eu-north-1"/>
    <circle cx="505" cy="175" r="3" fill="#FF9900" opacity="0.7" data-provider="aws" data-region="eu-south-1"/>
    <circle cx="470" cy="180" r="3" fill="#FF9900" opacity="0.7" data-provider="aws" data-region="eu-south-2"/>
    <circle cx="640" cy="230" r="3" fill="#FF9900" opacity="0.7" data-provider="aws" data-region="ap-south-1"/>
    <circle cx="650" cy="240" r="3" fill="#FF9900" opacity="0.7" data-provider="aws" data-region="ap-south-2"/>
    <circle cx="820" cy="185" r="3" fill="#FF9900" opacity="0.7" data-provider="aws" data-region="ap-northeast-1"/>
    <circle cx="795" cy="180" r="3" fill="#FF9900" opacity="0.7" data-provider="aws" data-region="ap-northeast-2"/>
    <circle cx="815" cy="190" r="3" fill="#FF9900" opacity="0.7" data-provider="aws" data-region="ap-northeast-3"/>
    <circle cx="730" cy="280" r="3" fill="#FF9900" opacity="0.7" data-provider="aws" data-region="ap-southeast-1"/>
    <circle cx="870" cy="380" r="3" fill="#FF9900" opacity="0.7" data-provider="aws" data-region="ap-southeast-2"/>
    <circle cx="735" cy="305" r="3" fill="#FF9900" opacity="0.7" data-provider="aws" data-region="ap-southeast-3"/>
    <circle cx="865" cy="395" r="3" fill="#FF9900" opacity="0.7" data-provider="aws" data-region="ap-southeast-4"/>
    <circle cx="760" cy="225" r="3" fill="#FF9900" opacity="0.7" data-provider="aws" data-region="ap-east-1"/>
    <circle cx="330" cy="350" r="3" fill="#FF9900" opacity="0.7" data-provider="aws" data-region="sa-east-1"/>
    <circle cx="530" cy="380" r="3" fill="#FF9900" opacity="0.7" data-provider="aws" data-region="af-south-1"/>
    <circle cx="580" cy="225" r="3" fill="#FF9900" opacity="0.7" data-provider="aws" data-region="me-south-1"/>
    <circle cx="595" cy="225" r="3" fill="#FF9900" opacity="0.7" data-provider="aws" data-region="me-central-1"/>
    <circle cx="555" cy="195" r="3" fill="#FF9900" opacity="0.7" data-provider="aws" data-region="il-central-1"/>
    <circle cx="283" cy="183" r="3" fill="#0078D4" opacity="0.7" data-provider="azure" data-region="eastus"/>
    <circle cx="278" cy="188" r="3" fill="#0078D4" opacity="0.7" data-provider="azure" data-region="eastus2"/>
    <circle cx="143" cy="188" r="3" fill="#0078D4" opacity="0.7" data-provider="azure" data-region="westus"/>
    <circle cx="148" cy="173" r="3" fill="#0078D4" opacity="0.7" data-provider="azure" data-region="westus2"/>
    <circle cx="163" cy="198" r="3" fill="#0078D4" opacity="0.7" data-provider="azure" data-region="westus3"/>
    <circle cx="233" cy="183" r="3" fill="#0078D4" opacity="0.7" data-provider="azure" data-region="centralus"/>
    <circle cx="243" cy="173" r="3" fill="#0078D4" opacity="0.7" data-provider="azure" data-region="northcentralus"/>
    <circle cx="223" cy="203" r="3" fill="#0078D4" opacity="0.7" data-provider="azure" data-region="southcentralus"/>
    <circle cx="253" cy="153" r="3" fill="#0078D4" opacity="0.7" data-provider="azure" data-region="canadacentral"/>
    <circle cx="283" cy="148" r="3" fill="#0078D4" opacity="0.7" data-provider="azure" data-region="canadaeast"/>
    <circle cx="463" cy="158" r="3" fill="#0078D4" opacity="0.7" data-provider="azure" data-region="northeurope"/>
    <circle cx="483" cy="163" r="3" fill="#0078D4" opacity="0.7" data-provider="azure" data-region="westeurope"/>
    <circle cx="478" cy="158" r="3" fill="#0078D4" opacity="0.7" data-provider="azure" data-region="uksouth"/>
    <circle cx="468" cy="158" r="3" fill="#0078D4" opacity="0.7" data-provider="azure" data-region="ukwest"/>
    <circle cx="488" cy="168" r="3" fill="#0078D4" opacity="0.7" data-provider="azure" data-region="francecentral"/>
    <circle cx="508" cy="158" r="3" fill="#0078D4" opacity="0.7" data-provider="azure" data-region="germanywestcentral"/>
    <circle cx="503" cy="168" r="3" fill="#0078D4" opacity="0.7" data-provider="azure" data-region="switzerlandnorth"/>
    <circle cx="513" cy="128" r="3" fill="#0078D4" opacity="0.7" data-provider="azure" data-region="norwayeast"/>
    <circle cx="523" cy="128" r="3" fill="#0078D4" opacity="0.7" data-provider="azure" data-region="swedencentral"/>
    <circle cx="508" cy="178" r="3" fill="#0078D4" opacity="0.7" data-provider="azure" data-region="italynorth"/>
    <circle cx="473" cy="183" r="3" fill="#0078D4" opacity="0.7" data-provider="azure" data-region="spaincentral"/>
    <circle cx="528" cy="158" r="3" fill="#0078D4" opacity="0.7" data-provider="azure" data-region="polandcentral"/>
    <circle cx="763" cy="228" r="3" fill="#0078D4" opacity="0.7" data-provider="azure" data-region="eastasia"/>
    <circle cx="733" cy="283" r="3" fill="#0078D4" opacity="0.7" data-provider="azure" data-region="southeastasia"/>
    <circle cx="823" cy="188" r="3" fill="#0078D4" opacity="0.7" data-provider="azure" data-region="japaneast"/>
    <circle cx="818" cy="193" r="3" fill="#0078D4" opacity="0.7" data-provider="azure" data-region="japanwest"/>
    <circle cx="798" cy="183" r="3" fill="#0078D4" opacity="0.7" data-provider="azure" data-region="koreacentral"/>
    <circle cx="803" cy="193" r="3" fill="#0078D4" opacity="0.7" data-provider="azure" data-region="koreasouth"/>
    <circle cx="643" cy="233" r="3" fill="#0078D4" opacity="0.7" data-provider="azure" data-region="centralindia"/>
    <circle cx="648" cy="258" r="3" fill="#0078D4" opacity="0.7" data-provider="azure" data-region="southindia"/>
    <circle cx="628" cy="238" r="3" fill="#0078D4" opacity="0.7" data-provider="azure" data-region="westindia"/>
    <circle cx="873" cy="383" r="3" fill="#0078D4" opacity="0.7" data-provider="azure" data-region="australiaeast"/>
    <circle cx="868" cy="398" r="3" fill="#0078D4" opacity="0.7" data-provider="azure" data-region="australiasoutheast"/>
    <circle cx="853" cy="378" r="3" fill="#0078D4" opacity="0.7" data-provider="azure" data-region="australiacentral"/>
    <circle cx="333" cy="353" r="3" fill="#0078D4" opacity="0.7" data-provider="azure" data-region="brazilsouth"/>
    <circle cx="543" cy="368" r="3" fill="#0078D4" opacity="0.7" data-provider="azure" data-region="southafricanorth"/>
    <circle cx="533" cy="383" r="3" fill="#0078D4" opacity="0.7" data-provider="azure" data-region="southafricawest"/>
    <circle cx="598" cy="228" r="3" fill="#0078D4" opacity="0.7" data-provider="azure" data-region="uaenorth"/>
    <circle cx="593" cy="233" r="3" fill="#0078D4" opacity="0.7" data-provider="azure" data-region="uaecentral"/>
    <circle cx="583" cy="228" r="3" fill="#0078D4" opacity="0.7" data-provider="azure" data-region="qatarcentral"/>
    <circle cx="558" cy="198" r="3" fill="#0078D4" opacity="0.7" data-provider="azure" data-region="israelcentral"/>
    <circle cx="267" cy="187" r="3" fill="#4285F4" opacity="0.7" data-provider="gcp" data-region="us-east1"/>
    <circle cx="277" cy="177" r="3" fill="#4285F4" opacity="0.7" data-provider="gcp" data-region="us-east4"/>
    <circle cx="257" cy="172" r="3" fill="#4285F4" opacity="0.7" data-provider="gcp" data-region="us-east5"/>
    <circle cx="227" cy="172" r="3" fill="#4285F4" opacity="0.7" data-provider="gcp" data-region="us-central1"/>
    <circle cx="217" cy="197" r="3" fill="#4285F4" opacity="0.7" data-provider="gcp" data-region="us-south1"/>
    <circle cx="142" cy="162" r="3" fill="#4285F4" opacity="0.7" data-provider="gcp" data-region="us-west1"/>
    <circle cx="147" cy="192" r="3" fill="#4285F4" opacity="0.7" data-provider="gcp" data-region="us-west2"/>
    <circle cx="167" cy="177" r="3" fill="#4285F4" opacity="0.7" data-provider="gcp" data-region="us-west3"/>
    <circle cx="157" cy="187" r="3" fill="#4285F4" opacity="0.7" data-provider="gcp" data-region="us-west4"/>
    <circle cx="267" cy="147" r="3" fill="#4285F4" opacity="0.7" data-provider="gcp" data-region="northamerica-northeast1"/>
    <circle cx="257" cy="152" r="3" fill="#4285F4" opacity="0.7" data-provider="gcp" data-region="northamerica-northeast2"/>
    <circle cx="327" cy="347" r="3" fill="#4285F4" opacity="0.7" data-provider="gcp" data-region="southamerica-east1"/>
    <circle cx="287" cy="377" r="3" fill="#4285F4" opacity="0.7" data-provider="gcp" data-region="southamerica-west1"/>
    <circle cx="487" cy="152" r="3" fill="#4285F4" opacity="0.7" data-provider="gcp" data-region="europe-west1"/>
    <circle cx="472" cy="152" r="3" fill="#4285F4" opacity="0.7" data-provider="gcp" data-region="europe-west2"/>
    <circle cx="502" cy="152" r="3" fill="#4285F4" opacity="0.7" data-provider="gcp" data-region="europe-west3"/>
    <circle cx="487" cy="147" r="3" fill="#4285F4" opacity="0.7" data-provider="gcp" data-region="europe-west4"/>
    <circle cx="497" cy="162" r="3" fill="#4285F4" opacity="0.7" data-provider="gcp" data-region="europe-west6"/>
    <circle cx="502" cy="172" r="3" fill="#4285F4" opacity="0.7" data-provider="gcp" data-region="europe-west8"/>
    <circle cx="482" cy="162" r="3" fill="#4285F4" opacity="0.7" data-provider="gcp" data-region="europe-west9"/>
    <circle cx="507" cy="147" r="3" fill="#4285F4" opacity="0.7" data-provider="gcp" data-region="europe-west10"/>
    <circle cx="497" cy="172" r="3" fill="#4285F4" opacity="0.7" data-provider="gcp" data-region="europe-west12"/>
    <circle cx="537" cy="117" r="3" fill="#4285F4" opacity="0.7" data-provider="gcp" data-region="europe-north1"/>
    <circle cx="522" cy="152" r="3" fill="#4285F4" opacity="0.7" data-provider="gcp" data-region="europe-central2"/>
    <circle cx="467" cy="177" r="3" fill="#4285F4" opacity="0.7" data-provider="gcp" data-region="europe-southwest1"/>
    <circle cx="772" cy="222" r="3" fill="#4285F4" opacity="0.7" data-provider="gcp" data-region="asia-east1"/>
    <circle cx="757" cy="222" r="3" fill="#4285F4" opacity="0.7" data-provider="gcp" data-region="asia-east2"/>
    <circle cx="817" cy="182" r="3" fill="#4285F4" opacity="0.7" data-provider="gcp" data-region="asia-northeast1"/>
    <circle cx="812" cy="187" r="3" fill="#4285F4" opacity="0.7" data-provider="gcp" data-region="asia-northeast2"/>
    <circle cx="792" cy="177" r="3" fill="#4285F4" opacity="0.7" data-provider="gcp" data-region="asia-northeast3"/>
    <circle cx="637" cy="227" r="3" fill="#4285F4" opacity="0.7" data-provider="gcp" data-region="asia-south1"/>
    <circle cx="642" cy="212" r="3" fill="#4285F4" opacity="0.7" data-provider="gcp" data-region="asia-south2"/>
    <circle cx="727" cy="277" r="3" fill="#4285F4" opacity="0.7" data-provider="gcp" data-region="asia-southeast1"/>
    <circle cx="732" cy="302" r="3" fill="#4285F4" opacity="0.7" data-provider="gcp" data-region="asia-southeast2"/>
    <circle cx="867" cy="377" r="3" fill="#4285F4" opacity="0.7" data-provider="gcp" data-region="australia-southeast1"/>
    <circle cx="862" cy="392" r="3" fill="#4285F4" opacity="0.7" data-provider="gcp" data-region="australia-southeast2"/>
    <circle cx="552" cy="192" r="3" fill="#4285F4" opacity="0.7" data-provider="gcp" data-region="me-west1"/>
    <circle cx="577" cy="222" r="3" fill="#4285F4" opacity="0.7" data-provider="gcp" data-region="me-central1"/>
    <circle cx="572" cy="222" r="3" fill="#4285F4" opacity="0.7" data-provider="gcp" data-region="me-central2"/>
    <circle cx="542" cy="362" r="3" fill="#4285F4" opacity="0.7" data-provider="gcp" data-region="africa-south1"/>
  </g>
  
  <!-- Legend -->
  <g transform="translate(20, 430)">
    <circle cx="0" cy="0" r="4" fill="#FF9900"/>
    <text x="12" y="4" font-family="system-ui, sans-serif" font-size="11" fill="#374151">AWS</text>
    
    <circle cx="60" cy="0" r="4" fill="#0078D4"/>
    <text x="72" y="4" font-family="system-ui, sans-serif" font-size="11" fill="#374151">Azure</text>
    
    <circle cx="130" cy="0" r="4" fill="#4285F4"/>
    <text x="142" y="4" font-family="system-ui, sans-serif" font-size="11" fill="#374151">GCP</text>
  </g>
</svg>